<svg width="32" height="32" viewBox="0 0 32 32" fill="none" xmlns="http://www.w3.org/2000/svg">
<path d="M15.9982 10.6656C22.6249 10.6656 27.9969 8.87497 27.9969 6.66607C27.9969 4.45717 22.6249 2.6665 15.9982 2.6665C9.37151 2.6665 3.99951 4.45717 3.99951 6.66607C3.99951 8.87497 9.37151 10.6656 15.9982 10.6656Z" stroke="white" stroke-width="2" stroke-linecap="round" stroke-linejoin="round"/>
<path d="M3.99951 6.66602V25.3307C3.99951 26.3914 5.26366 27.4087 7.51385 28.1588C9.76404 28.9088 12.816 29.3302 15.9982 29.3302C19.1805 29.3302 22.2324 28.9088 24.4826 28.1588C26.7328 27.4087 27.9969 26.3914 27.9969 25.3307V6.66602" stroke="white" stroke-width="2" stroke-linecap="round" stroke-linejoin="round"/>
<path d="M3.99951 15.998C3.99951 17.0588 5.26366 18.0761 7.51385 18.8262C9.76404 19.5762 12.816 19.9976 15.9982 19.9976C19.1805 19.9976 22.2324 19.5762 24.4826 18.8262C26.7328 18.0761 27.9969 17.0588 27.9969 15.998" stroke="white" stroke-width="2" stroke-linecap="round" stroke-linejoin="round"/>
</svg>
