<svg width="32" height="32" viewBox="0 0 32 32" fill="none" xmlns="http://www.w3.org/2000/svg">
<path d="M18.6648 23.9974V7.99914C18.6648 7.29197 18.3838 6.61377 17.8838 6.11373C17.3838 5.61368 16.7056 5.33276 15.9984 5.33276H5.33288C4.62571 5.33276 3.94751 5.61368 3.44747 6.11373C2.94742 6.61377 2.6665 7.29197 2.6665 7.99914V22.6642C2.6665 23.0178 2.80696 23.3569 3.05699 23.6069C3.30701 23.8569 3.64611 23.9974 3.99969 23.9974H6.66607" stroke="#004AAD" stroke-width="2" stroke-linecap="round" stroke-linejoin="round"/>
<path d="M19.9977 23.9973H11.9985" stroke="#004AAD" stroke-width="2" stroke-linecap="round" stroke-linejoin="round"/>
<path d="M25.3305 23.9974H27.9969C28.3505 23.9974 28.6896 23.857 28.9396 23.6069C29.1896 23.3569 29.3301 23.0178 29.3301 22.6642V17.7981C29.3295 17.4955 29.2261 17.2022 29.0368 16.9662L24.3973 11.1668C24.2726 11.0107 24.1144 10.8845 23.9344 10.7978C23.7544 10.711 23.5572 10.6658 23.3574 10.6655H18.6646" stroke="#004AAD" stroke-width="2" stroke-linecap="round" stroke-linejoin="round"/>
<path d="M22.6644 26.6638C24.137 26.6638 25.3308 25.47 25.3308 23.9974C25.3308 22.5248 24.137 21.3311 22.6644 21.3311C21.1918 21.3311 19.998 22.5248 19.998 23.9974C19.998 25.47 21.1918 26.6638 22.6644 26.6638Z" stroke="#004AAD" stroke-width="2" stroke-linecap="round" stroke-linejoin="round"/>
<path d="M9.33239 26.6638C10.805 26.6638 11.9988 25.47 11.9988 23.9974C11.9988 22.5248 10.805 21.3311 9.33239 21.3311C7.85979 21.3311 6.66602 22.5248 6.66602 23.9974C6.66602 25.47 7.85979 26.6638 9.33239 26.6638Z" stroke="#004AAD" stroke-width="2" stroke-linecap="round" stroke-linejoin="round"/>
</svg>
