<svg width="32" height="32" viewBox="0 0 32 32" fill="none" xmlns="http://www.w3.org/2000/svg">
<path d="M14.665 28.9703C15.0704 29.2043 15.5302 29.3275 15.9982 29.3275C16.4663 29.3275 16.9261 29.2043 17.3314 28.9703L26.6637 23.6375C27.0687 23.4037 27.405 23.0676 27.639 22.6627C27.873 22.2579 27.9964 21.7987 27.9969 21.3311V10.6656C27.9964 10.198 27.873 9.73877 27.639 9.33395C27.405 8.92913 27.0687 8.59296 26.6637 8.35917L17.3314 3.02642C16.9261 2.79239 16.4663 2.66919 15.9982 2.66919C15.5302 2.66919 15.0704 2.79239 14.665 3.02642L5.3327 8.35917C4.92776 8.59296 4.59142 8.92913 4.35742 9.33395C4.12342 9.73877 3.99999 10.198 3.99951 10.6656V21.3311C3.99999 21.7987 4.12342 22.2579 4.35742 22.6627C4.59142 23.0676 4.92776 23.4037 5.3327 23.6375L14.665 28.9703Z" stroke="#DB0707" stroke-width="2" stroke-linecap="round" stroke-linejoin="round"/>
<path d="M15.998 29.3302V15.9983" stroke="#DB0707" stroke-width="2" stroke-linecap="round" stroke-linejoin="round"/>
<path d="M4.38623 9.33228L15.9983 15.9982L27.6104 9.33228" stroke="#DB0707" stroke-width="2" stroke-linecap="round" stroke-linejoin="round"/>
<path d="M9.99902 5.69263L21.9977 12.5585" stroke="#DB0707" stroke-width="2" stroke-linecap="round" stroke-linejoin="round"/>
</svg>
