<svg width="32" height="32" viewBox="0 0 32 32" fill="none" xmlns="http://www.w3.org/2000/svg">
<path d="M21.3311 27.9972V25.3308C21.3311 23.9165 20.7693 22.5601 19.7692 21.56C18.7691 20.5599 17.4127 19.998 15.9984 19.998H7.99926C6.58492 19.998 5.22852 20.5599 4.22843 21.56C3.22835 22.5601 2.6665 23.9165 2.6665 25.3308V27.9972" stroke="white" stroke-width="2" stroke-linecap="round" stroke-linejoin="round"/>
<path d="M21.3311 4.17041C22.4746 4.46687 23.4873 5.13466 24.2103 6.06895C24.9333 7.00325 25.3256 8.15116 25.3256 9.33252C25.3256 10.5139 24.9333 11.6618 24.2103 12.5961C23.4873 13.5304 22.4746 14.1982 21.3311 14.4946" stroke="white" stroke-width="2" stroke-linecap="round" stroke-linejoin="round"/>
<path d="M29.3301 27.9972V25.3308C29.3293 24.1493 28.936 23.0014 28.2121 22.0676C27.4882 21.1338 26.4746 20.4668 25.3306 20.1714" stroke="white" stroke-width="2" stroke-linecap="round" stroke-linejoin="round"/>
<path d="M11.9988 14.665C14.944 14.665 17.3315 12.2775 17.3315 9.33227C17.3315 6.38707 14.944 3.99951 11.9988 3.99951C9.05357 3.99951 6.66602 6.38707 6.66602 9.33227C6.66602 12.2775 9.05357 14.665 11.9988 14.665Z" stroke="white" stroke-width="2" stroke-linecap="round" stroke-linejoin="round"/>
</svg>
