<svg width="24" height="24" viewBox="0 0 24 24" fill="none" xmlns="http://www.w3.org/2000/svg">
<path d="M10.9967 19.9942C9.24129 19.9995 7.54798 19.3449 6.25262 18.1601C4.95726 16.9754 4.15447 15.3471 4.00349 13.5981C3.8525 11.8492 4.36434 10.1074 5.43749 8.71819C6.51063 7.32897 8.0667 6.39382 9.79707 6.0982C15.4954 4.99852 16.995 4.47867 18.9944 1.99939C19.9941 3.99881 20.9938 6.17818 20.9938 9.99708C20.9938 15.4955 16.2152 19.9942 10.9967 19.9942Z" stroke="#004AAD" stroke-width="2" stroke-linecap="round" stroke-linejoin="round"/>
<path d="M1.99951 20.994C1.99951 17.9948 3.84898 15.6355 7.07804 14.9957C9.49734 14.5159 11.9966 12.9963 12.9963 11.9966" stroke="#004AAD" stroke-width="2" stroke-linecap="round" stroke-linejoin="round"/>
</svg>
