<svg width="24" height="24" viewBox="0 0 24 24" fill="none" xmlns="http://www.w3.org/2000/svg">
<path d="M15.4723 12.8862L16.9869 21.4098C17.0039 21.5101 16.9898 21.6133 16.9465 21.7054C16.9033 21.7976 16.833 21.8743 16.7449 21.9254C16.6569 21.9765 16.5553 21.9995 16.4539 21.9913C16.3524 21.9831 16.2559 21.9442 16.1771 21.8796L12.5982 19.1934C12.4254 19.0643 12.2155 18.9946 11.9999 18.9946C11.7842 18.9946 11.5743 19.0643 11.4015 19.1934L7.81656 21.8786C7.7379 21.943 7.64147 21.9819 7.54014 21.9901C7.4388 21.9983 7.33737 21.9754 7.24939 21.9245C7.16141 21.8735 7.09105 21.797 7.0477 21.705C7.00436 21.613 6.99009 21.5101 7.0068 21.4098L8.52036 12.8862" stroke="#004AAD" stroke-width="2" stroke-linecap="round" stroke-linejoin="round"/>
<path d="M11.9963 13.9959C15.3091 13.9959 17.9946 11.3104 17.9946 7.99765C17.9946 4.6849 15.3091 1.99939 11.9963 1.99939C8.68356 1.99939 5.99805 4.6849 5.99805 7.99765C5.99805 11.3104 8.68356 13.9959 11.9963 13.9959Z" stroke="#004AAD" stroke-width="2" stroke-linecap="round" stroke-linejoin="round"/>
</svg>
