<svg width="32" height="32" viewBox="0 0 32 32" fill="none" xmlns="http://www.w3.org/2000/svg">
<path d="M15.9984 29.3303C23.3614 29.3303 29.3303 23.3614 29.3303 15.9984C29.3303 8.63539 23.3614 2.6665 15.9984 2.6665C8.63539 2.6665 2.6665 8.63539 2.6665 15.9984C2.6665 23.3614 8.63539 29.3303 15.9984 29.3303Z" stroke="#00BF63" stroke-width="2" stroke-linecap="round" stroke-linejoin="round"/>
<path d="M15.9982 23.9973C20.416 23.9973 23.9973 20.416 23.9973 15.9982C23.9973 11.5804 20.416 7.99902 15.9982 7.99902C11.5804 7.99902 7.99902 11.5804 7.99902 15.9982C7.99902 20.416 11.5804 23.9973 15.9982 23.9973Z" stroke="#00BF63" stroke-width="2" stroke-linecap="round" stroke-linejoin="round"/>
<path d="M15.9984 18.6648C17.471 18.6648 18.6648 17.471 18.6648 15.9984C18.6648 14.5258 17.471 13.332 15.9984 13.332C14.5258 13.332 13.332 14.5258 13.332 15.9984C13.332 17.471 14.5258 18.6648 15.9984 18.6648Z" stroke="#00BF63" stroke-width="2" stroke-linecap="round" stroke-linejoin="round"/>
</svg>
