<svg width="32" height="32" viewBox="0 0 32 32" fill="none" xmlns="http://www.w3.org/2000/svg">
<path d="M20.6337 17.1846L22.6535 28.5513C22.6761 28.6852 22.6573 28.8227 22.5997 28.9456C22.542 29.0685 22.4482 29.1709 22.3308 29.239C22.2134 29.3071 22.0779 29.3378 21.9426 29.3269C21.8073 29.316 21.6786 29.264 21.5736 29.1779L16.8008 25.5957C16.5704 25.4235 16.2905 25.3305 16.0029 25.3305C15.7153 25.3305 15.4354 25.4235 15.205 25.5957L10.4242 29.1766C10.3193 29.2625 10.1907 29.3144 10.0555 29.3253C9.92038 29.3362 9.78512 29.3057 9.66778 29.2378C9.55045 29.1698 9.45662 29.0677 9.39882 28.9451C9.34102 28.8224 9.32199 28.6851 9.34427 28.5513L11.3627 17.1846" stroke="white" stroke-width="2" stroke-linecap="round" stroke-linejoin="round"/>
<path d="M15.9982 18.6648C20.416 18.6648 23.9973 15.0834 23.9973 10.6656C23.9973 6.24784 20.416 2.6665 15.9982 2.6665C11.5804 2.6665 7.99902 6.24784 7.99902 10.6656C7.99902 15.0834 11.5804 18.6648 15.9982 18.6648Z" stroke="white" stroke-width="2" stroke-linecap="round" stroke-linejoin="round"/>
</svg>
