<svg width="28" height="28" viewBox="0 0 28 28" fill="none" xmlns="http://www.w3.org/2000/svg">
<path d="M16.6001 6.73757C16.3558 6.98678 16.219 7.32183 16.219 7.6708C16.219 8.01976 16.3558 8.35482 16.6001 8.60403L18.7332 10.7371C18.9824 10.9814 19.3174 11.1182 19.6664 11.1182C20.0154 11.1182 20.3504 10.9814 20.5996 10.7371L25.6258 5.71101C26.2961 7.19244 26.4991 8.84298 26.2076 10.4427C25.9162 12.0424 25.1441 13.5153 23.9943 14.6651C22.8445 15.8149 21.3716 16.5869 19.7719 16.8784C18.1722 17.1699 16.5217 16.9669 15.0402 16.2965L5.8279 25.5089C5.29753 26.0392 4.57818 26.3372 3.82812 26.3372C3.07806 26.3372 2.35871 26.0392 1.82834 25.5089C1.29796 24.9785 1 24.2591 1 23.5091C1 22.759 1.29796 22.0397 1.82834 21.5093L11.0407 12.297C10.3703 10.8155 10.1673 9.16499 10.4588 7.56528C10.7503 5.96558 11.5223 4.49268 12.6721 3.3429C13.8219 2.19311 15.2948 1.42104 16.8945 1.12956C18.4942 0.838094 20.1448 1.04107 21.6262 1.71145L16.6134 6.72423L16.6001 6.73757Z" stroke="#22C55E" stroke-width="2" stroke-linecap="round" stroke-linejoin="round"/>
</svg>
