<svg width="32" height="32" viewBox="0 0 32 32" fill="none" xmlns="http://www.w3.org/2000/svg">
<path d="M2.74886 16.4624C2.63775 16.1631 2.63775 15.8339 2.74886 15.5345C3.83101 12.9106 5.6679 10.6671 8.02665 9.08844C10.3854 7.50976 13.1598 6.66699 15.9981 6.66699C18.8364 6.66699 21.6108 7.50976 23.9695 9.08844C26.3283 10.6671 28.1652 12.9106 29.2473 15.5345C29.3584 15.8339 29.3584 16.1631 29.2473 16.4624C28.1652 19.0863 26.3283 21.3299 23.9695 22.9085C21.6108 24.4872 18.8364 25.33 15.9981 25.33C13.1598 25.33 10.3854 24.4872 8.02665 22.9085C5.6679 21.3299 3.83101 19.0863 2.74886 16.4624Z" stroke="#004AAD" stroke-width="2" stroke-linecap="round" stroke-linejoin="round"/>
<path d="M15.9981 19.9977C18.207 19.9977 19.9977 18.207 19.9977 15.9981C19.9977 13.7892 18.207 11.9985 15.9981 11.9985C13.7892 11.9985 11.9985 13.7892 11.9985 15.9981C11.9985 18.207 13.7892 19.9977 15.9981 19.9977Z" stroke="#004AAD" stroke-width="2" stroke-linecap="round" stroke-linejoin="round"/>
</svg>
